<svg width="188" height="45" viewBox="0 0 188 45" fill="none" xmlns="http://www.w3.org/2000/svg">
<rect x="0.5" y="0.5" width="187" height="44" rx="7.5" stroke="#C9C9C9"/>
<path d="M47.612 18.432C48.684 18.432 49.492 18.592 50.036 18.912C50.588 19.224 50.864 19.772 50.864 20.556C50.864 21.06 50.724 21.48 50.444 21.816C50.164 22.144 49.76 22.356 49.232 22.452V22.512C49.592 22.568 49.916 22.672 50.204 22.824C50.5 22.976 50.732 23.192 50.9 23.472C51.068 23.752 51.152 24.116 51.152 24.564C51.152 25.34 50.884 25.94 50.348 26.364C49.82 26.788 49.096 27 48.176 27H45.164V18.432H47.612ZM47.828 22.08C48.564 22.08 49.068 21.964 49.34 21.732C49.612 21.492 49.748 21.14 49.748 20.676C49.748 20.204 49.58 19.868 49.244 19.668C48.916 19.46 48.388 19.356 47.66 19.356H46.244V22.08H47.828ZM46.244 22.98V26.088H47.972C48.732 26.088 49.26 25.94 49.556 25.644C49.852 25.348 50 24.96 50 24.48C50 24.032 49.844 23.672 49.532 23.4C49.228 23.12 48.68 22.98 47.888 22.98H46.244ZM59.3767 23.772C59.3767 24.836 59.1047 25.66 58.5607 26.244C58.0247 26.828 57.2967 27.12 56.3767 27.12C55.8087 27.12 55.3007 26.992 54.8527 26.736C54.4127 26.472 54.0647 26.092 53.8087 25.596C53.5527 25.092 53.4247 24.484 53.4247 23.772C53.4247 22.708 53.6927 21.888 54.2287 21.312C54.7647 20.736 55.4927 20.448 56.4127 20.448C56.9967 20.448 57.5087 20.58 57.9487 20.844C58.3967 21.1 58.7447 21.476 58.9927 21.972C59.2487 22.46 59.3767 23.06 59.3767 23.772ZM54.5167 23.772C54.5167 24.532 54.6647 25.136 54.9607 25.584C55.2647 26.024 55.7447 26.244 56.4007 26.244C57.0487 26.244 57.5247 26.024 57.8287 25.584C58.1327 25.136 58.2847 24.532 58.2847 23.772C58.2847 23.012 58.1327 22.416 57.8287 21.984C57.5247 21.552 57.0447 21.336 56.3887 21.336C55.7327 21.336 55.2567 21.552 54.9607 21.984C54.6647 22.416 54.5167 23.012 54.5167 23.772ZM67.2183 17.904C67.1623 18.504 66.9583 18.96 66.6063 19.272C66.2623 19.576 65.7103 19.728 64.9503 19.728C64.1663 19.728 63.6103 19.576 63.2823 19.272C62.9623 18.968 62.7823 18.512 62.7423 17.904H63.7263C63.7663 18.336 63.8783 18.628 64.0623 18.78C64.2543 18.924 64.5583 18.996 64.9743 18.996C65.3423 18.996 65.6303 18.92 65.8383 18.768C66.0543 18.608 66.1823 18.32 66.2223 17.904H67.2183ZM63.0063 24.492C63.0063 24.588 63.0023 24.732 62.9943 24.924C62.9863 25.116 62.9743 25.308 62.9583 25.5C62.9503 25.692 62.9423 25.844 62.9343 25.956L66.3783 20.568H67.6743V27H66.6903V23.208C66.6903 23.08 66.6903 22.912 66.6903 22.704C66.6983 22.496 66.7063 22.292 66.7143 22.092C66.7223 21.884 66.7303 21.728 66.7383 21.624L63.3183 27H62.0103V20.568H63.0063V24.492ZM75.1212 21.456H73.0212V27H71.9772V21.456H69.9012V20.568H75.1212V21.456ZM78.3443 24.492C78.3443 24.588 78.3403 24.732 78.3323 24.924C78.3243 25.116 78.3123 25.308 78.2963 25.5C78.2883 25.692 78.2803 25.844 78.2723 25.956L81.7163 20.568H83.0123V27H82.0283V23.208C82.0283 23.08 82.0283 22.912 82.0283 22.704C82.0363 22.496 82.0443 22.292 82.0523 22.092C82.0603 21.884 82.0683 21.728 82.0763 21.624L78.6563 27H77.3483V20.568H78.3443V24.492ZM90.6688 22.908C90.6688 23.644 91.0808 24.012 91.9048 24.012C92.3048 24.012 92.6688 23.952 92.9968 23.832C93.3248 23.704 93.6608 23.536 94.0048 23.328V20.568H95.0608V27H94.0048V24.132C93.6448 24.364 93.2888 24.548 92.9368 24.684C92.5928 24.812 92.1768 24.876 91.6888 24.876C91.0328 24.876 90.5208 24.704 90.1528 24.36C89.7928 24.016 89.6128 23.556 89.6128 22.98V20.568H90.6688V22.908ZM100.548 20.448C101.1 20.448 101.572 20.568 101.964 20.808C102.364 21.048 102.668 21.388 102.876 21.828C103.092 22.26 103.2 22.768 103.2 23.352V23.988H98.7962C98.8122 24.716 98.9962 25.272 99.3482 25.656C99.7082 26.032 100.208 26.22 100.848 26.22C101.256 26.22 101.616 26.184 101.928 26.112C102.248 26.032 102.576 25.92 102.912 25.776V26.7C102.584 26.844 102.26 26.948 101.94 27.012C101.62 27.084 101.24 27.12 100.8 27.12C100.192 27.12 99.6522 26.996 99.1802 26.748C98.7162 26.5 98.3522 26.132 98.0882 25.644C97.8322 25.148 97.7042 24.544 97.7042 23.832C97.7042 23.128 97.8202 22.524 98.0522 22.02C98.2922 21.516 98.6242 21.128 99.0482 20.856C99.4802 20.584 99.9802 20.448 100.548 20.448ZM100.536 21.312C100.032 21.312 99.6322 21.476 99.3362 21.804C99.0482 22.124 98.8762 22.572 98.8202 23.148H102.096C102.088 22.604 101.96 22.164 101.712 21.828C101.464 21.484 101.072 21.312 100.536 21.312ZM108.858 20.448C109.65 20.448 110.286 20.724 110.766 21.276C111.254 21.828 111.498 22.66 111.498 23.772C111.498 24.868 111.254 25.7 110.766 26.268C110.286 26.836 109.646 27.12 108.846 27.12C108.35 27.12 107.938 27.028 107.61 26.844C107.29 26.652 107.038 26.432 106.854 26.184H106.782C106.798 26.32 106.814 26.492 106.83 26.7C106.846 26.908 106.854 27.088 106.854 27.24V29.88H105.798V20.568H106.662L106.806 21.444H106.854C107.046 21.164 107.298 20.928 107.61 20.736C107.922 20.544 108.338 20.448 108.858 20.448ZM108.666 21.336C108.01 21.336 107.546 21.52 107.274 21.888C107.01 22.256 106.87 22.816 106.854 23.568V23.772C106.854 24.564 106.982 25.176 107.238 25.608C107.502 26.032 107.986 26.244 108.69 26.244C109.082 26.244 109.402 26.136 109.65 25.92C109.906 25.704 110.094 25.412 110.214 25.044C110.342 24.668 110.406 24.24 110.406 23.76C110.406 23.024 110.262 22.436 109.974 21.996C109.694 21.556 109.258 21.336 108.666 21.336ZM116.624 20.448C117.176 20.448 117.648 20.568 118.04 20.808C118.44 21.048 118.744 21.388 118.952 21.828C119.168 22.26 119.276 22.768 119.276 23.352V23.988H114.872C114.888 24.716 115.072 25.272 115.424 25.656C115.784 26.032 116.284 26.22 116.924 26.22C117.332 26.22 117.692 26.184 118.004 26.112C118.324 26.032 118.652 25.92 118.988 25.776V26.7C118.66 26.844 118.336 26.948 118.016 27.012C117.696 27.084 117.316 27.12 116.876 27.12C116.268 27.12 115.728 26.996 115.256 26.748C114.792 26.5 114.428 26.132 114.164 25.644C113.908 25.148 113.78 24.544 113.78 23.832C113.78 23.128 113.896 22.524 114.128 22.02C114.368 21.516 114.7 21.128 115.124 20.856C115.556 20.584 116.056 20.448 116.624 20.448ZM116.612 21.312C116.108 21.312 115.708 21.476 115.412 21.804C115.124 22.124 114.952 22.572 114.896 23.148H118.172C118.164 22.604 118.036 22.164 117.788 21.828C117.54 21.484 117.148 21.312 116.612 21.312ZM123.566 20.448C124.302 20.448 124.886 20.596 125.318 20.892C125.758 21.18 125.978 21.596 125.978 22.14C125.978 22.532 125.87 22.844 125.654 23.076C125.438 23.3 125.142 23.464 124.766 23.568V23.616C125.022 23.688 125.258 23.788 125.474 23.916C125.69 24.044 125.862 24.212 125.99 24.42C126.126 24.628 126.194 24.896 126.194 25.224C126.194 25.76 125.97 26.212 125.522 26.58C125.082 26.94 124.39 27.12 123.446 27.12C122.982 27.12 122.562 27.08 122.186 27C121.81 26.928 121.498 26.828 121.25 26.7V25.752C121.522 25.88 121.842 25.996 122.21 26.1C122.586 26.204 122.994 26.256 123.434 26.256C123.914 26.256 124.318 26.176 124.646 26.016C124.982 25.848 125.15 25.564 125.15 25.164C125.15 24.444 124.538 24.084 123.314 24.084H122.45V23.22H123.146C123.698 23.22 124.138 23.148 124.466 23.004C124.802 22.852 124.97 22.596 124.97 22.236C124.97 21.932 124.842 21.704 124.586 21.552C124.338 21.4 123.978 21.324 123.506 21.324C123.154 21.324 122.842 21.36 122.57 21.432C122.306 21.496 122.014 21.596 121.694 21.732L121.322 20.892C121.994 20.596 122.742 20.448 123.566 20.448ZM133.139 19.3184V22.4414H136.356V23.1621H133.139V27H132.383V18.5977H137.112V19.3184H133.139ZM142.8 27L142.402 26.4023C142.238 26.6172 142.033 26.791 141.787 26.9238C141.541 27.0527 141.271 27.1172 140.978 27.1172H140.796C140.554 27.1172 140.326 27.0723 140.111 26.9824C139.896 26.8887 139.709 26.7617 139.548 26.6016C139.388 26.4414 139.261 26.2539 139.168 26.0391C139.078 25.8242 139.033 25.5957 139.033 25.3535V25.2949C139.033 25.0527 139.078 24.8242 139.168 24.6094C139.261 24.3945 139.388 24.207 139.548 24.0469C139.709 23.8867 139.896 23.7617 140.111 23.6719C140.326 23.5781 140.554 23.5312 140.796 23.5312H142.32V22.6055C142.32 22.4609 142.293 22.3262 142.238 22.2012C142.183 22.0723 142.109 21.9609 142.015 21.8672C141.921 21.7734 141.81 21.6992 141.681 21.6445C141.556 21.5898 141.421 21.5625 141.277 21.5625H140.855C140.71 21.5625 140.574 21.5898 140.445 21.6445C140.32 21.6992 140.21 21.7734 140.117 21.8672C140.023 21.9609 139.949 22.0723 139.894 22.2012C139.839 22.3262 139.812 22.4609 139.812 22.6055V22.8223L139.091 22.7051V22.6465C139.091 22.4043 139.136 22.1758 139.226 21.9609C139.32 21.7461 139.447 21.5586 139.607 21.3984C139.767 21.2383 139.955 21.1133 140.169 21.0234C140.384 20.9297 140.613 20.8828 140.855 20.8828H141.277C141.519 20.8828 141.748 20.9297 141.962 21.0234C142.177 21.1133 142.365 21.2383 142.525 21.3984C142.685 21.5586 142.81 21.7461 142.9 21.9609C142.994 22.1758 143.041 22.4043 143.041 22.6465V27H142.8ZM142.32 24.0938H140.796C140.652 24.0938 140.515 24.1211 140.386 24.1758C140.261 24.2305 140.152 24.3066 140.058 24.4043C139.964 24.498 139.89 24.6094 139.835 24.7383C139.781 24.8633 139.753 24.998 139.753 25.1426V25.3945C139.753 25.5391 139.781 25.6758 139.835 25.8047C139.89 25.9297 139.964 26.0391 140.058 26.1328C140.152 26.2266 140.261 26.3008 140.386 26.3555C140.515 26.4102 140.652 26.4375 140.796 26.4375H141.277C141.421 26.4375 141.556 26.4102 141.681 26.3555C141.81 26.3008 141.921 26.2266 142.015 26.1328C142.109 26.0391 142.183 25.9297 142.238 25.8047C142.293 25.6758 142.32 25.5391 142.32 25.3945V24.0938ZM149.45 25.3535C149.45 25.5957 149.403 25.8242 149.309 26.0391C149.219 26.2539 149.094 26.4414 148.934 26.6016C148.774 26.7617 148.586 26.8887 148.372 26.9824C148.157 27.0723 147.928 27.1172 147.686 27.1172H147.206C146.963 27.1172 146.735 27.0723 146.52 26.9824C146.305 26.8887 146.118 26.7617 145.958 26.6016C145.797 26.4414 145.67 26.2539 145.577 26.0391C145.487 25.8242 145.442 25.5957 145.442 25.3535V22.6465C145.442 22.4043 145.487 22.1758 145.577 21.9609C145.67 21.7461 145.797 21.5586 145.958 21.3984C146.118 21.2383 146.305 21.1133 146.52 21.0234C146.735 20.9297 146.963 20.8828 147.206 20.8828H147.686C147.928 20.8828 148.157 20.9297 148.372 21.0234C148.586 21.1133 148.774 21.2383 148.934 21.3984C149.094 21.5586 149.219 21.7461 149.309 21.9609C149.403 22.1758 149.45 22.4043 149.45 22.6465V22.8867L148.729 23.0039V22.6055C148.729 22.4609 148.702 22.3262 148.647 22.2012C148.592 22.0723 148.518 21.9609 148.424 21.8672C148.331 21.7734 148.219 21.6992 148.09 21.6445C147.965 21.5898 147.831 21.5625 147.686 21.5625H147.206C147.061 21.5625 146.924 21.5898 146.795 21.6445C146.67 21.6992 146.561 21.7734 146.467 21.8672C146.374 21.9609 146.299 22.0723 146.245 22.2012C146.19 22.3262 146.163 22.4609 146.163 22.6055V25.3945C146.163 25.5391 146.19 25.6758 146.245 25.8047C146.299 25.9297 146.374 26.0391 146.467 26.1328C146.561 26.2266 146.67 26.3008 146.795 26.3555C146.924 26.4102 147.061 26.4375 147.206 26.4375H147.686C147.831 26.4375 147.965 26.4102 148.09 26.3555C148.219 26.3008 148.331 26.2266 148.424 26.1328C148.518 26.0391 148.592 25.9297 148.647 25.8047C148.702 25.6758 148.729 25.5391 148.729 25.3945V24.9961L149.45 25.1133V25.3535ZM155.859 25.3535C155.859 25.5957 155.812 25.8242 155.718 26.0391C155.629 26.2539 155.504 26.4414 155.343 26.6016C155.183 26.7617 154.996 26.8887 154.781 26.9824C154.566 27.0723 154.338 27.1172 154.095 27.1172H153.615C153.373 27.1172 153.144 27.0723 152.929 26.9824C152.714 26.8887 152.527 26.7617 152.367 26.6016C152.207 26.4414 152.08 26.2539 151.986 26.0391C151.896 25.8242 151.851 25.5957 151.851 25.3535V22.6465C151.851 22.4043 151.896 22.1758 151.986 21.9609C152.08 21.7461 152.207 21.5586 152.367 21.3984C152.527 21.2383 152.714 21.1133 152.929 21.0234C153.144 20.9297 153.373 20.8828 153.615 20.8828H154.095C154.338 20.8828 154.566 20.9297 154.781 21.0234C154.996 21.1133 155.183 21.2383 155.343 21.3984C155.504 21.5586 155.629 21.7461 155.718 21.9609C155.812 22.1758 155.859 22.4043 155.859 22.6465V24.0586H152.572V25.3945C152.572 25.5391 152.599 25.6758 152.654 25.8047C152.709 25.9297 152.783 26.0391 152.877 26.1328C152.97 26.2266 153.08 26.3008 153.205 26.3555C153.334 26.4102 153.47 26.4375 153.615 26.4375H154.095C154.24 26.4375 154.375 26.4102 154.5 26.3555C154.629 26.3008 154.74 26.2266 154.834 26.1328C154.927 26.0391 155.002 25.9297 155.056 25.8047C155.111 25.6758 155.138 25.5391 155.138 25.3945V24.9961L155.859 25.1133V25.3535ZM155.138 22.6055C155.138 22.4609 155.111 22.3262 155.056 22.2012C155.002 22.0723 154.927 21.9609 154.834 21.8672C154.74 21.7734 154.629 21.6992 154.5 21.6445C154.375 21.5898 154.24 21.5625 154.095 21.5625H153.615C153.47 21.5625 153.334 21.5898 153.205 21.6445C153.08 21.6992 152.97 21.7734 152.877 21.8672C152.783 21.9609 152.709 22.0723 152.654 22.2012C152.599 22.3262 152.572 22.4609 152.572 22.6055V23.4961H155.138V22.6055ZM162.268 25.3535C162.268 25.5957 162.221 25.8242 162.128 26.0391C162.038 26.2539 161.913 26.4414 161.753 26.6016C161.592 26.7617 161.405 26.8887 161.19 26.9824C160.975 27.0723 160.747 27.1172 160.505 27.1172H160.024C159.782 27.1172 159.553 27.0723 159.339 26.9824C159.124 26.8887 158.936 26.7617 158.776 26.6016C158.616 26.4414 158.489 26.2539 158.395 26.0391C158.305 25.8242 158.26 25.5957 158.26 25.3535V18.5977H158.981V21.5039C159.145 21.3086 159.342 21.1562 159.573 21.0469C159.803 20.9375 160.053 20.8828 160.323 20.8828H160.505C160.747 20.8828 160.975 20.9297 161.19 21.0234C161.405 21.1133 161.592 21.2383 161.753 21.3984C161.913 21.5586 162.038 21.7461 162.128 21.9609C162.221 22.1758 162.268 22.4043 162.268 22.6465V25.3535ZM161.548 22.6055C161.548 22.4609 161.52 22.3262 161.465 22.2012C161.411 22.0723 161.337 21.9609 161.243 21.8672C161.149 21.7734 161.038 21.6992 160.909 21.6445C160.784 21.5898 160.649 21.5625 160.505 21.5625H160.024C159.88 21.5625 159.743 21.5898 159.614 21.6445C159.489 21.6992 159.38 21.7734 159.286 21.8672C159.192 21.9609 159.118 22.0723 159.063 22.2012C159.008 22.3262 158.981 22.4609 158.981 22.6055V25.3945C158.981 25.5391 159.008 25.6758 159.063 25.8047C159.118 25.9297 159.192 26.0391 159.286 26.1328C159.38 26.2266 159.489 26.3008 159.614 26.3555C159.743 26.4102 159.88 26.4375 160.024 26.4375H160.505C160.649 26.4375 160.784 26.4102 160.909 26.3555C161.038 26.3008 161.149 26.2266 161.243 26.1328C161.337 26.0391 161.411 25.9297 161.465 25.8047C161.52 25.6758 161.548 25.5391 161.548 25.3945V22.6055ZM168.677 25.3535C168.677 25.5957 168.631 25.8242 168.537 26.0391C168.447 26.2539 168.322 26.4414 168.162 26.6016C168.002 26.7617 167.814 26.8887 167.599 26.9824C167.384 27.0723 167.156 27.1172 166.914 27.1172H166.433C166.191 27.1172 165.963 27.0723 165.748 26.9824C165.533 26.8887 165.345 26.7617 165.185 26.6016C165.025 26.4414 164.898 26.2539 164.804 26.0391C164.715 25.8242 164.67 25.5957 164.67 25.3535V22.6465C164.67 22.4043 164.715 22.1758 164.804 21.9609C164.898 21.7461 165.025 21.5586 165.185 21.3984C165.345 21.2383 165.533 21.1133 165.748 21.0234C165.963 20.9297 166.191 20.8828 166.433 20.8828H166.914C167.156 20.8828 167.384 20.9297 167.599 21.0234C167.814 21.1133 168.002 21.2383 168.162 21.3984C168.322 21.5586 168.447 21.7461 168.537 21.9609C168.631 22.1758 168.677 22.4043 168.677 22.6465V25.3535ZM167.957 22.6055C167.957 22.4609 167.929 22.3262 167.875 22.2012C167.82 22.0723 167.746 21.9609 167.652 21.8672C167.558 21.7734 167.447 21.6992 167.318 21.6445C167.193 21.5898 167.058 21.5625 166.914 21.5625H166.433C166.289 21.5625 166.152 21.5898 166.023 21.6445C165.898 21.6992 165.789 21.7734 165.695 21.8672C165.601 21.9609 165.527 22.0723 165.472 22.2012C165.418 22.3262 165.39 22.4609 165.39 22.6055V25.3945C165.39 25.5391 165.418 25.6758 165.472 25.8047C165.527 25.9297 165.601 26.0391 165.695 26.1328C165.789 26.2266 165.898 26.3008 166.023 26.3555C166.152 26.4102 166.289 26.4375 166.433 26.4375H166.914C167.058 26.4375 167.193 26.4102 167.318 26.3555C167.447 26.3008 167.558 26.2266 167.652 26.1328C167.746 26.0391 167.82 25.9297 167.875 25.8047C167.929 25.6758 167.957 25.5391 167.957 25.3945V22.6055ZM175.087 25.3535C175.087 25.5957 175.04 25.8242 174.946 26.0391C174.856 26.2539 174.731 26.4414 174.571 26.6016C174.411 26.7617 174.223 26.8887 174.009 26.9824C173.794 27.0723 173.565 27.1172 173.323 27.1172H172.842C172.6 27.1172 172.372 27.0723 172.157 26.9824C171.942 26.8887 171.755 26.7617 171.594 26.6016C171.434 26.4414 171.307 26.2539 171.214 26.0391C171.124 25.8242 171.079 25.5957 171.079 25.3535V22.6465C171.079 22.4043 171.124 22.1758 171.214 21.9609C171.307 21.7461 171.434 21.5586 171.594 21.3984C171.755 21.2383 171.942 21.1133 172.157 21.0234C172.372 20.9297 172.6 20.8828 172.842 20.8828H173.323C173.565 20.8828 173.794 20.9297 174.009 21.0234C174.223 21.1133 174.411 21.2383 174.571 21.3984C174.731 21.5586 174.856 21.7461 174.946 21.9609C175.04 22.1758 175.087 22.4043 175.087 22.6465V25.3535ZM174.366 22.6055C174.366 22.4609 174.339 22.3262 174.284 22.2012C174.229 22.0723 174.155 21.9609 174.061 21.8672C173.967 21.7734 173.856 21.6992 173.727 21.6445C173.602 21.5898 173.467 21.5625 173.323 21.5625H172.842C172.698 21.5625 172.561 21.5898 172.432 21.6445C172.307 21.6992 172.198 21.7734 172.104 21.8672C172.01 21.9609 171.936 22.0723 171.882 22.2012C171.827 22.3262 171.8 22.4609 171.8 22.6055V25.3945C171.8 25.5391 171.827 25.6758 171.882 25.8047C171.936 25.9297 172.01 26.0391 172.104 26.1328C172.198 26.2266 172.307 26.3008 172.432 26.3555C172.561 26.4102 172.698 26.4375 172.842 26.4375H173.323C173.467 26.4375 173.602 26.4102 173.727 26.3555C173.856 26.3008 173.967 26.2266 174.061 26.1328C174.155 26.0391 174.229 25.9297 174.284 25.8047C174.339 25.6758 174.366 25.5391 174.366 25.3945V22.6055ZM181.039 27L178.59 24L181.039 21H181.976L179.469 24L181.976 27H181.039ZM177.728 27V18.5977H178.449V27H177.728Z" fill="#606060"/>
<path d="M24 33C30.0751 33 35 28.0751 35 22C35 15.9249 30.0751 11 24 11C17.9249 11 13 15.9249 13 22C13 28.0751 17.9249 33 24 33Z" fill="#3B5998"/>
<path d="M26.7654 22.4306H24.8026V29.6215H21.8287V22.4306H20.4144V19.9035H21.8287V18.2681C21.8287 17.0987 22.3842 15.2674 24.829 15.2674L27.0319 15.2766V17.7297H25.4336C25.1714 17.7297 24.8028 17.8606 24.8028 18.4185V19.9058H27.0252L26.7654 22.4306Z" fill="white"/>
</svg>
