<svg width="188" height="45" viewBox="0 0 188 45" fill="none" xmlns="http://www.w3.org/2000/svg">
<rect x="0.5" y="0.5" width="187" height="44" rx="7.5" stroke="#C9C9C9"/>
<path d="M54.612 18.432C55.684 18.432 56.492 18.592 57.036 18.912C57.588 19.224 57.864 19.772 57.864 20.556C57.864 21.06 57.724 21.48 57.444 21.816C57.164 22.144 56.76 22.356 56.232 22.452V22.512C56.592 22.568 56.916 22.672 57.204 22.824C57.5 22.976 57.732 23.192 57.9 23.472C58.068 23.752 58.152 24.116 58.152 24.564C58.152 25.34 57.884 25.94 57.348 26.364C56.82 26.788 56.096 27 55.176 27H52.164V18.432H54.612ZM54.828 22.08C55.564 22.08 56.068 21.964 56.34 21.732C56.612 21.492 56.748 21.14 56.748 20.676C56.748 20.204 56.58 19.868 56.244 19.668C55.916 19.46 55.388 19.356 54.66 19.356H53.244V22.08H54.828ZM53.244 22.98V26.088H54.972C55.732 26.088 56.26 25.94 56.556 25.644C56.852 25.348 57 24.96 57 24.48C57 24.032 56.844 23.672 56.532 23.4C56.228 23.12 55.68 22.98 54.888 22.98H53.244ZM66.3767 23.772C66.3767 24.836 66.1047 25.66 65.5607 26.244C65.0247 26.828 64.2967 27.12 63.3767 27.12C62.8087 27.12 62.3007 26.992 61.8527 26.736C61.4127 26.472 61.0647 26.092 60.8087 25.596C60.5527 25.092 60.4247 24.484 60.4247 23.772C60.4247 22.708 60.6927 21.888 61.2287 21.312C61.7647 20.736 62.4927 20.448 63.4127 20.448C63.9967 20.448 64.5087 20.58 64.9487 20.844C65.3967 21.1 65.7447 21.476 65.9927 21.972C66.2487 22.46 66.3767 23.06 66.3767 23.772ZM61.5167 23.772C61.5167 24.532 61.6647 25.136 61.9607 25.584C62.2647 26.024 62.7447 26.244 63.4007 26.244C64.0487 26.244 64.5247 26.024 64.8287 25.584C65.1327 25.136 65.2847 24.532 65.2847 23.772C65.2847 23.012 65.1327 22.416 64.8287 21.984C64.5247 21.552 64.0447 21.336 63.3887 21.336C62.7327 21.336 62.2567 21.552 61.9607 21.984C61.6647 22.416 61.5167 23.012 61.5167 23.772ZM74.2183 17.904C74.1623 18.504 73.9583 18.96 73.6063 19.272C73.2623 19.576 72.7103 19.728 71.9503 19.728C71.1663 19.728 70.6103 19.576 70.2823 19.272C69.9623 18.968 69.7823 18.512 69.7423 17.904H70.7263C70.7663 18.336 70.8783 18.628 71.0623 18.78C71.2543 18.924 71.5583 18.996 71.9743 18.996C72.3423 18.996 72.6303 18.92 72.8383 18.768C73.0543 18.608 73.1823 18.32 73.2223 17.904H74.2183ZM70.0063 24.492C70.0063 24.588 70.0023 24.732 69.9943 24.924C69.9863 25.116 69.9743 25.308 69.9583 25.5C69.9503 25.692 69.9423 25.844 69.9343 25.956L73.3783 20.568H74.6743V27H73.6903V23.208C73.6903 23.08 73.6903 22.912 73.6903 22.704C73.6983 22.496 73.7063 22.292 73.7143 22.092C73.7223 21.884 73.7303 21.728 73.7383 21.624L70.3183 27H69.0103V20.568H70.0063V24.492ZM82.1212 21.456H80.0212V27H78.9772V21.456H76.9012V20.568H82.1212V21.456ZM85.3443 24.492C85.3443 24.588 85.3403 24.732 85.3323 24.924C85.3243 25.116 85.3123 25.308 85.2963 25.5C85.2883 25.692 85.2803 25.844 85.2723 25.956L88.7163 20.568H90.0123V27H89.0283V23.208C89.0283 23.08 89.0283 22.912 89.0283 22.704C89.0363 22.496 89.0443 22.292 89.0523 22.092C89.0603 21.884 89.0683 21.728 89.0763 21.624L85.6563 27H84.3483V20.568H85.3443V24.492ZM97.6688 22.908C97.6688 23.644 98.0808 24.012 98.9048 24.012C99.3048 24.012 99.6688 23.952 99.9968 23.832C100.325 23.704 100.661 23.536 101.005 23.328V20.568H102.061V27H101.005V24.132C100.645 24.364 100.289 24.548 99.9368 24.684C99.5928 24.812 99.1768 24.876 98.6888 24.876C98.0328 24.876 97.5208 24.704 97.1528 24.36C96.7928 24.016 96.6128 23.556 96.6128 22.98V20.568H97.6688V22.908ZM107.548 20.448C108.1 20.448 108.572 20.568 108.964 20.808C109.364 21.048 109.668 21.388 109.876 21.828C110.092 22.26 110.2 22.768 110.2 23.352V23.988H105.796C105.812 24.716 105.996 25.272 106.348 25.656C106.708 26.032 107.208 26.22 107.848 26.22C108.256 26.22 108.616 26.184 108.928 26.112C109.248 26.032 109.576 25.92 109.912 25.776V26.7C109.584 26.844 109.26 26.948 108.94 27.012C108.62 27.084 108.24 27.12 107.8 27.12C107.192 27.12 106.652 26.996 106.18 26.748C105.716 26.5 105.352 26.132 105.088 25.644C104.832 25.148 104.704 24.544 104.704 23.832C104.704 23.128 104.82 22.524 105.052 22.02C105.292 21.516 105.624 21.128 106.048 20.856C106.48 20.584 106.98 20.448 107.548 20.448ZM107.536 21.312C107.032 21.312 106.632 21.476 106.336 21.804C106.048 22.124 105.876 22.572 105.82 23.148H109.096C109.088 22.604 108.96 22.164 108.712 21.828C108.464 21.484 108.072 21.312 107.536 21.312ZM115.858 20.448C116.65 20.448 117.286 20.724 117.766 21.276C118.254 21.828 118.498 22.66 118.498 23.772C118.498 24.868 118.254 25.7 117.766 26.268C117.286 26.836 116.646 27.12 115.846 27.12C115.35 27.12 114.938 27.028 114.61 26.844C114.29 26.652 114.038 26.432 113.854 26.184H113.782C113.798 26.32 113.814 26.492 113.83 26.7C113.846 26.908 113.854 27.088 113.854 27.24V29.88H112.798V20.568H113.662L113.806 21.444H113.854C114.046 21.164 114.298 20.928 114.61 20.736C114.922 20.544 115.338 20.448 115.858 20.448ZM115.666 21.336C115.01 21.336 114.546 21.52 114.274 21.888C114.01 22.256 113.87 22.816 113.854 23.568V23.772C113.854 24.564 113.982 25.176 114.238 25.608C114.502 26.032 114.986 26.244 115.69 26.244C116.082 26.244 116.402 26.136 116.65 25.92C116.906 25.704 117.094 25.412 117.214 25.044C117.342 24.668 117.406 24.24 117.406 23.76C117.406 23.024 117.262 22.436 116.974 21.996C116.694 21.556 116.258 21.336 115.666 21.336ZM123.624 20.448C124.176 20.448 124.648 20.568 125.04 20.808C125.44 21.048 125.744 21.388 125.952 21.828C126.168 22.26 126.276 22.768 126.276 23.352V23.988H121.872C121.888 24.716 122.072 25.272 122.424 25.656C122.784 26.032 123.284 26.22 123.924 26.22C124.332 26.22 124.692 26.184 125.004 26.112C125.324 26.032 125.652 25.92 125.988 25.776V26.7C125.66 26.844 125.336 26.948 125.016 27.012C124.696 27.084 124.316 27.12 123.876 27.12C123.268 27.12 122.728 26.996 122.256 26.748C121.792 26.5 121.428 26.132 121.164 25.644C120.908 25.148 120.78 24.544 120.78 23.832C120.78 23.128 120.896 22.524 121.128 22.02C121.368 21.516 121.7 21.128 122.124 20.856C122.556 20.584 123.056 20.448 123.624 20.448ZM123.612 21.312C123.108 21.312 122.708 21.476 122.412 21.804C122.124 22.124 121.952 22.572 121.896 23.148H125.172C125.164 22.604 125.036 22.164 124.788 21.828C124.54 21.484 124.148 21.312 123.612 21.312ZM130.566 20.448C131.302 20.448 131.886 20.596 132.318 20.892C132.758 21.18 132.978 21.596 132.978 22.14C132.978 22.532 132.87 22.844 132.654 23.076C132.438 23.3 132.142 23.464 131.766 23.568V23.616C132.022 23.688 132.258 23.788 132.474 23.916C132.69 24.044 132.862 24.212 132.99 24.42C133.126 24.628 133.194 24.896 133.194 25.224C133.194 25.76 132.97 26.212 132.522 26.58C132.082 26.94 131.39 27.12 130.446 27.12C129.982 27.12 129.562 27.08 129.186 27C128.81 26.928 128.498 26.828 128.25 26.7V25.752C128.522 25.88 128.842 25.996 129.21 26.1C129.586 26.204 129.994 26.256 130.434 26.256C130.914 26.256 131.318 26.176 131.646 26.016C131.982 25.848 132.15 25.564 132.15 25.164C132.15 24.444 131.538 24.084 130.314 24.084H129.45V23.22H130.146C130.698 23.22 131.138 23.148 131.466 23.004C131.802 22.852 131.97 22.596 131.97 22.236C131.97 21.932 131.842 21.704 131.586 21.552C131.338 21.4 130.978 21.324 130.506 21.324C130.154 21.324 129.842 21.36 129.57 21.432C129.306 21.496 129.014 21.596 128.694 21.732L128.322 20.892C128.994 20.596 129.742 20.448 130.566 20.448ZM143.989 27H143.749L143.309 26.3262C143.125 26.5684 142.903 26.7617 142.641 26.9062C142.379 27.0469 142.088 27.1172 141.768 27.1172H141.329C141.043 27.1172 140.774 27.0645 140.52 26.959C140.27 26.8496 140.051 26.7012 139.864 26.5137C139.676 26.3262 139.528 26.1074 139.418 25.8574C139.313 25.6074 139.26 25.3398 139.26 25.0547V20.543C139.26 20.2578 139.313 19.9902 139.418 19.7402C139.528 19.4902 139.676 19.2715 139.864 19.084C140.051 18.8965 140.27 18.75 140.52 18.6445C140.774 18.5352 141.043 18.4805 141.329 18.4805H141.926C142.211 18.4805 142.479 18.5352 142.729 18.6445C142.979 18.75 143.198 18.8965 143.385 19.084C143.573 19.2715 143.719 19.4902 143.825 19.7402C143.934 19.9902 143.989 20.2578 143.989 20.543V20.8828L143.233 21V20.543C143.233 20.3555 143.198 20.1816 143.127 20.0215C143.057 19.8574 142.961 19.7148 142.84 19.5938C142.719 19.4727 142.577 19.377 142.413 19.3066C142.252 19.2363 142.079 19.2012 141.891 19.2012H141.364C141.176 19.2012 141 19.2363 140.836 19.3066C140.676 19.377 140.534 19.4727 140.409 19.5938C140.288 19.7148 140.192 19.8574 140.122 20.0215C140.051 20.1816 140.016 20.3555 140.016 20.543V25.0547C140.016 25.2422 140.051 25.418 140.122 25.582C140.192 25.7422 140.288 25.8848 140.409 26.0098C140.534 26.1309 140.676 26.2266 140.836 26.2969C141 26.3672 141.176 26.4023 141.364 26.4023H141.891C142.079 26.4023 142.252 26.3672 142.413 26.2969C142.577 26.2266 142.719 26.1309 142.84 26.0098C142.961 25.8848 143.057 25.7422 143.127 25.582C143.198 25.418 143.233 25.2422 143.233 25.0547V23.3027H141.891V22.582H143.989V27ZM150.521 25.3535C150.521 25.5957 150.474 25.8242 150.38 26.0391C150.291 26.2539 150.166 26.4414 150.005 26.6016C149.845 26.7617 149.658 26.8887 149.443 26.9824C149.228 27.0723 149 27.1172 148.757 27.1172H148.277C148.035 27.1172 147.806 27.0723 147.591 26.9824C147.376 26.8887 147.189 26.7617 147.029 26.6016C146.869 26.4414 146.742 26.2539 146.648 26.0391C146.558 25.8242 146.513 25.5957 146.513 25.3535V22.6465C146.513 22.4043 146.558 22.1758 146.648 21.9609C146.742 21.7461 146.869 21.5586 147.029 21.3984C147.189 21.2383 147.376 21.1133 147.591 21.0234C147.806 20.9297 148.035 20.8828 148.277 20.8828H148.757C149 20.8828 149.228 20.9297 149.443 21.0234C149.658 21.1133 149.845 21.2383 150.005 21.3984C150.166 21.5586 150.291 21.7461 150.38 21.9609C150.474 22.1758 150.521 22.4043 150.521 22.6465V25.3535ZM149.8 22.6055C149.8 22.4609 149.773 22.3262 149.718 22.2012C149.664 22.0723 149.589 21.9609 149.496 21.8672C149.402 21.7734 149.291 21.6992 149.162 21.6445C149.037 21.5898 148.902 21.5625 148.757 21.5625H148.277C148.132 21.5625 147.996 21.5898 147.867 21.6445C147.742 21.6992 147.632 21.7734 147.539 21.8672C147.445 21.9609 147.371 22.0723 147.316 22.2012C147.261 22.3262 147.234 22.4609 147.234 22.6055V25.3945C147.234 25.5391 147.261 25.6758 147.316 25.8047C147.371 25.9297 147.445 26.0391 147.539 26.1328C147.632 26.2266 147.742 26.3008 147.867 26.3555C147.996 26.4102 148.132 26.4375 148.277 26.4375H148.757C148.902 26.4375 149.037 26.4102 149.162 26.3555C149.291 26.3008 149.402 26.2266 149.496 26.1328C149.589 26.0391 149.664 25.9297 149.718 25.8047C149.773 25.6758 149.8 25.5391 149.8 25.3945V22.6055ZM156.93 25.3535C156.93 25.5957 156.883 25.8242 156.79 26.0391C156.7 26.2539 156.575 26.4414 156.415 26.6016C156.254 26.7617 156.067 26.8887 155.852 26.9824C155.637 27.0723 155.409 27.1172 155.167 27.1172H154.686C154.444 27.1172 154.215 27.0723 154.001 26.9824C153.786 26.8887 153.598 26.7617 153.438 26.6016C153.278 26.4414 153.151 26.2539 153.057 26.0391C152.967 25.8242 152.922 25.5957 152.922 25.3535V22.6465C152.922 22.4043 152.967 22.1758 153.057 21.9609C153.151 21.7461 153.278 21.5586 153.438 21.3984C153.598 21.2383 153.786 21.1133 154.001 21.0234C154.215 20.9297 154.444 20.8828 154.686 20.8828H155.167C155.409 20.8828 155.637 20.9297 155.852 21.0234C156.067 21.1133 156.254 21.2383 156.415 21.3984C156.575 21.5586 156.7 21.7461 156.79 21.9609C156.883 22.1758 156.93 22.4043 156.93 22.6465V25.3535ZM156.21 22.6055C156.21 22.4609 156.182 22.3262 156.128 22.2012C156.073 22.0723 155.999 21.9609 155.905 21.8672C155.811 21.7734 155.7 21.6992 155.571 21.6445C155.446 21.5898 155.311 21.5625 155.167 21.5625H154.686C154.542 21.5625 154.405 21.5898 154.276 21.6445C154.151 21.6992 154.042 21.7734 153.948 21.8672C153.854 21.9609 153.78 22.0723 153.725 22.2012C153.67 22.3262 153.643 22.4609 153.643 22.6055V25.3945C153.643 25.5391 153.67 25.6758 153.725 25.8047C153.78 25.9297 153.854 26.0391 153.948 26.1328C154.042 26.2266 154.151 26.3008 154.276 26.3555C154.405 26.4102 154.542 26.4375 154.686 26.4375H155.167C155.311 26.4375 155.446 26.4102 155.571 26.3555C155.7 26.3008 155.811 26.2266 155.905 26.1328C155.999 26.0391 156.073 25.9297 156.128 25.8047C156.182 25.6758 156.21 25.5391 156.21 25.3945V22.6055ZM163.398 27.7559C163.398 27.998 163.351 28.2207 163.257 28.4238C163.168 28.627 163.043 28.8008 162.882 28.9453C162.722 29.0898 162.535 29.2012 162.32 29.2793C162.105 29.3613 161.877 29.4023 161.634 29.4023H161.336C161.093 29.4023 160.865 29.3613 160.65 29.2793C160.435 29.2012 160.248 29.0898 160.088 28.9453C159.927 28.8008 159.8 28.627 159.707 28.4238C159.617 28.2207 159.572 27.998 159.572 27.7559V27.7324C159.572 27.498 159.615 27.2832 159.701 27.0879C159.787 26.8926 159.904 26.7227 160.052 26.5781C159.865 26.4648 159.714 26.3125 159.601 26.1211C159.492 25.9258 159.437 25.7109 159.437 25.4766C159.437 25.2656 159.482 25.0703 159.572 24.8906C159.662 24.707 159.785 24.5586 159.941 24.4453C159.754 24.2812 159.605 24.084 159.496 23.8535C159.386 23.623 159.332 23.3711 159.332 23.0977V22.6465C159.332 22.4043 159.377 22.1758 159.466 21.9609C159.56 21.7461 159.687 21.5586 159.847 21.3984C160.007 21.2383 160.195 21.1133 160.41 21.0234C160.625 20.9297 160.853 20.8828 161.095 20.8828H161.394C161.687 20.8828 161.957 20.9492 162.203 21.082C162.453 21.2109 162.66 21.3867 162.824 21.6094L163.216 21H163.457V23.0977C163.457 23.3398 163.41 23.5684 163.316 23.7832C163.226 23.998 163.101 24.1855 162.941 24.3457C162.781 24.5059 162.593 24.6328 162.379 24.7266C162.164 24.8164 161.935 24.8613 161.693 24.8613H160.65C160.568 24.8613 160.49 24.8789 160.416 24.9141C160.341 24.9453 160.275 24.9883 160.216 25.043C160.162 25.0977 160.119 25.1641 160.088 25.2422C160.056 25.3164 160.041 25.3945 160.041 25.4766C160.041 25.5586 160.056 25.6367 160.088 25.7109C160.119 25.7852 160.162 25.8516 160.216 25.9102C160.275 25.9648 160.341 26.0078 160.416 26.0391C160.49 26.0703 160.568 26.0859 160.65 26.0859H161.634C161.877 26.0859 162.105 26.127 162.32 26.209C162.535 26.2871 162.722 26.3984 162.882 26.543C163.043 26.6875 163.168 26.8613 163.257 27.0645C163.351 27.2676 163.398 27.4902 163.398 27.7324V27.7559ZM162.742 22.6055C162.742 22.4609 162.714 22.3262 162.66 22.2012C162.605 22.0723 162.529 21.9609 162.431 21.8672C162.338 21.7734 162.226 21.6992 162.097 21.6445C161.972 21.5898 161.838 21.5625 161.693 21.5625H161.095C160.951 21.5625 160.814 21.5898 160.685 21.6445C160.56 21.6992 160.451 21.7734 160.357 21.8672C160.263 21.9609 160.189 22.0723 160.134 22.2012C160.08 22.3262 160.052 22.4609 160.052 22.6055V23.1387C160.052 23.2832 160.08 23.4199 160.134 23.5488C160.189 23.6738 160.263 23.7832 160.357 23.877C160.451 23.9707 160.56 24.0449 160.685 24.0996C160.814 24.1543 160.951 24.1816 161.095 24.1816H161.693C161.838 24.1816 161.972 24.1543 162.097 24.0996C162.226 24.0449 162.338 23.9707 162.431 23.877C162.529 23.7832 162.605 23.6738 162.66 23.5488C162.714 23.4199 162.742 23.2832 162.742 23.1387V22.6055ZM162.713 27.6973C162.713 27.5527 162.685 27.4219 162.63 27.3047C162.576 27.1914 162.502 27.0957 162.408 27.0176C162.314 26.9395 162.203 26.8789 162.074 26.8359C161.949 26.793 161.814 26.7715 161.67 26.7715H161.3C161.156 26.7715 161.019 26.793 160.89 26.8359C160.765 26.8789 160.656 26.9395 160.562 27.0176C160.468 27.0957 160.394 27.1914 160.339 27.3047C160.285 27.4219 160.257 27.5527 160.257 27.6973V27.791C160.257 27.9355 160.285 28.0645 160.339 28.1777C160.394 28.291 160.468 28.3867 160.562 28.4648C160.656 28.5469 160.765 28.6094 160.89 28.6523C161.019 28.6953 161.156 28.7168 161.3 28.7168H161.67C161.814 28.7168 161.949 28.6953 162.074 28.6523C162.203 28.6094 162.314 28.5469 162.408 28.4648C162.502 28.3867 162.576 28.291 162.63 28.1777C162.685 28.0645 162.713 27.9355 162.713 27.791V27.6973ZM165.981 27V18.5977H166.702V27H165.981ZM173.357 25.3535C173.357 25.5957 173.31 25.8242 173.216 26.0391C173.127 26.2539 173.002 26.4414 172.841 26.6016C172.681 26.7617 172.494 26.8887 172.279 26.9824C172.064 27.0723 171.836 27.1172 171.593 27.1172H171.113C170.871 27.1172 170.642 27.0723 170.427 26.9824C170.213 26.8887 170.025 26.7617 169.865 26.6016C169.705 26.4414 169.578 26.2539 169.484 26.0391C169.394 25.8242 169.349 25.5957 169.349 25.3535V22.6465C169.349 22.4043 169.394 22.1758 169.484 21.9609C169.578 21.7461 169.705 21.5586 169.865 21.3984C170.025 21.2383 170.213 21.1133 170.427 21.0234C170.642 20.9297 170.871 20.8828 171.113 20.8828H171.593C171.836 20.8828 172.064 20.9297 172.279 21.0234C172.494 21.1133 172.681 21.2383 172.841 21.3984C173.002 21.5586 173.127 21.7461 173.216 21.9609C173.31 22.1758 173.357 22.4043 173.357 22.6465V24.0586H170.07V25.3945C170.07 25.5391 170.097 25.6758 170.152 25.8047C170.207 25.9297 170.281 26.0391 170.375 26.1328C170.468 26.2266 170.578 26.3008 170.703 26.3555C170.832 26.4102 170.968 26.4375 171.113 26.4375H171.593C171.738 26.4375 171.873 26.4102 171.998 26.3555C172.127 26.3008 172.238 26.2266 172.332 26.1328C172.425 26.0391 172.5 25.9297 172.554 25.8047C172.609 25.6758 172.636 25.5391 172.636 25.3945V24.9961L173.357 25.1133V25.3535ZM172.636 22.6055C172.636 22.4609 172.609 22.3262 172.554 22.2012C172.5 22.0723 172.425 21.9609 172.332 21.8672C172.238 21.7734 172.127 21.6992 171.998 21.6445C171.873 21.5898 171.738 21.5625 171.593 21.5625H171.113C170.968 21.5625 170.832 21.5898 170.703 21.6445C170.578 21.6992 170.468 21.7734 170.375 21.8672C170.281 21.9609 170.207 22.0723 170.152 22.2012C170.097 22.3262 170.07 22.4609 170.07 22.6055V23.4961H172.636V22.6055Z" fill="#606060"/>
<path d="M16.8757 24.2949L16.1099 27.1537L13.3109 27.2129C12.4745 25.6614 12 23.8863 12 22C12 20.1759 12.4436 18.4558 13.2299 16.9412H13.2305L15.7224 17.3981L16.814 19.8749C16.5855 20.541 16.461 21.256 16.461 22C16.4611 22.8075 16.6073 23.5811 16.8757 24.2949Z" fill="#FBBB00"/>
<path d="M33.8078 19.9451C33.9341 20.6105 34 21.2977 34 22C34 22.7875 33.9172 23.5557 33.7595 24.2967C33.224 26.8183 31.8248 29.0201 29.8865 30.5782L29.8859 30.5776L26.7473 30.4175L26.3031 27.6445C27.5892 26.8902 28.5944 25.7098 29.1238 24.2967H23.2418V19.9451H29.2096H33.8078Z" fill="#518EF8"/>
<path d="M29.8859 30.5776L29.8865 30.5782C28.0014 32.0934 25.6067 33 23 33C18.8109 33 15.1688 30.6586 13.3109 27.2129L16.8756 24.2949C17.8046 26.7741 20.1962 28.539 23 28.539C24.2051 28.539 25.3342 28.2132 26.303 27.6445L29.8859 30.5776Z" fill="#28B446"/>
<path d="M30.0213 13.5324L26.4577 16.4498C25.455 15.8231 24.2698 15.461 23 15.461C20.1327 15.461 17.6964 17.3068 16.814 19.8749L13.2305 16.9412H13.2299C15.0606 13.4115 18.7487 11 23 11C25.669 11 28.1162 11.9507 30.0213 13.5324Z" fill="#F14336"/>
</svg>
