<svg width="50" height="37" viewBox="0 0 50 37" fill="none" xmlns="http://www.w3.org/2000/svg">
<path d="M47.75 0.28125H2.25C1.28203 0.28125 0.5 1.02139 0.5 1.9375V35.0625C0.5 35.9786 1.28203 36.7188 2.25 36.7188H47.75C48.718 36.7188 49.5 35.9786 49.5 35.0625V1.9375C49.5 1.02139 48.718 0.28125 47.75 0.28125ZM15.4844 7.73438C17.4148 7.73438 18.9844 9.21982 18.9844 11.0469C18.9844 12.8739 17.4148 14.3594 15.4844 14.3594C13.5539 14.3594 11.9844 12.8739 11.9844 11.0469C11.9844 9.21982 13.5539 7.73438 15.4844 7.73438ZM43.5883 30.3577C43.5086 30.421 43.408 30.4559 43.3039 30.4561H6.69062C6.45 30.4561 6.25312 30.2697 6.25312 30.042C6.25312 29.9437 6.29141 29.8505 6.35703 29.7729L15.6703 19.3178C15.8234 19.1418 16.1023 19.1211 16.2883 19.266C16.3047 19.2815 16.3266 19.2971 16.343 19.3178L21.7789 25.4252L30.425 15.7206C30.5781 15.5446 30.857 15.5239 31.043 15.6688C31.0594 15.6844 31.0812 15.6999 31.0977 15.7206L43.6539 29.778C43.7961 29.9488 43.7742 30.2128 43.5883 30.3577Z" fill="#4C7CFF"/>
</svg>
