<svg width="31" height="30" viewBox="0 0 31 30" fill="none" xmlns="http://www.w3.org/2000/svg">
<g id="Instagram">
<g id="Instagram_2">
<rect id="Rectangle" x="0.636841" width="29.5476" height="30" rx="14.7738" fill="#262626"/>
<path id="Vector" d="M12.3336 15C12.3336 13.2742 13.7112 11.8747 15.411 11.8747C17.1108 11.8747 18.4891 13.2742 18.4891 15C18.4891 16.7258 17.1108 18.1252 15.411 18.1252C13.7112 18.1252 12.3336 16.7258 12.3336 15ZM10.6696 15C10.6696 17.6587 12.7923 19.8139 15.411 19.8139C18.0296 19.8139 20.1523 17.6587 20.1523 15C20.1523 12.3412 18.0296 10.186 15.411 10.186C12.7923 10.186 10.6696 12.3412 10.6696 15ZM19.232 9.99517C19.2319 10.2177 19.2968 10.4352 19.4185 10.6203C19.5402 10.8053 19.7132 10.9496 19.9156 11.0348C20.118 11.12 20.3408 11.1424 20.5558 11.0991C20.7707 11.0558 20.9682 10.9487 21.1232 10.7914C21.2782 10.6342 21.3838 10.4338 21.4267 10.2155C21.4695 9.99733 21.4477 9.77112 21.3639 9.56552C21.2801 9.35992 21.1382 9.18416 20.956 9.06047C20.7738 8.93678 20.5596 8.87071 20.3405 8.87063H20.34C20.0463 8.87076 19.7646 8.98927 19.5568 9.20012C19.3491 9.41098 19.2323 9.69693 19.232 9.99517ZM11.6806 22.631C10.7804 22.5894 10.2911 22.4371 9.96588 22.3085C9.53478 22.1381 9.22719 21.9352 8.9038 21.6073C8.5804 21.2794 8.38021 20.9674 8.21312 20.5297C8.08636 20.1997 7.93641 19.7027 7.89549 18.7887C7.85072 17.8005 7.84178 17.5036 7.84178 15.0001C7.84178 12.4965 7.85146 12.2005 7.89549 11.2114C7.93648 10.2974 8.08754 9.80145 8.21312 9.47047C8.38095 9.03277 8.58084 8.72047 8.9038 8.39213C9.22675 8.06378 9.53405 7.86053 9.96588 7.69088C10.2909 7.56218 10.7804 7.40992 11.6806 7.36837C12.6539 7.32292 12.9463 7.31385 15.411 7.31385C17.8757 7.31385 18.1684 7.32367 19.1425 7.36837C20.0427 7.41 20.5312 7.56337 20.8572 7.69088C21.2883 7.86053 21.5959 8.06422 21.9193 8.39213C22.2427 8.72003 22.4421 9.03277 22.61 9.47047C22.7367 9.80047 22.8867 10.2974 22.9276 11.2114C22.9724 12.2005 22.9813 12.4965 22.9813 15.0001C22.9813 17.5036 22.9724 17.7997 22.9276 18.7887C22.8866 19.7027 22.7359 20.1995 22.61 20.5297C22.4421 20.9674 22.2422 21.2797 21.9193 21.6073C21.5963 21.9349 21.2883 22.1381 20.8572 22.3085C20.5322 22.4372 20.0427 22.5895 19.1425 22.631C18.1692 22.6765 17.8768 22.6855 15.411 22.6855C12.9452 22.6855 12.6536 22.6765 11.6806 22.631ZM11.6041 5.68177C10.6212 5.72722 9.94948 5.88547 9.36289 6.11722C8.75539 6.35655 8.24112 6.67762 7.72721 7.19857C7.21331 7.71952 6.89789 8.2425 6.66217 8.8593C6.43391 9.45525 6.27805 10.1368 6.23329 11.1349C6.18778 12.1345 6.17737 12.4541 6.17737 15C6.17737 17.5459 6.18778 17.8655 6.23329 18.8651C6.27805 19.8632 6.43391 20.5448 6.66217 21.1407C6.89789 21.7571 7.21338 22.2807 7.72721 22.8014C8.24104 23.3221 8.75539 23.6428 9.36289 23.8828C9.95059 24.1145 10.6212 24.2728 11.6041 24.3182C12.5892 24.3637 12.9034 24.375 15.411 24.375C17.9185 24.375 18.2333 24.3644 19.2178 24.3182C20.2009 24.2728 20.8721 24.1145 21.4591 23.8828C22.0662 23.6428 22.5808 23.3224 23.0948 22.8014C23.6087 22.2805 23.9234 21.7571 24.1598 21.1407C24.388 20.5448 24.5446 19.8631 24.5887 18.8651C24.6334 17.8648 24.6439 17.5459 24.6439 15C24.6439 12.4541 24.6334 12.1345 24.5887 11.1349C24.5439 10.1368 24.388 9.45487 24.1598 8.8593C23.9234 8.24287 23.6078 7.72035 23.0948 7.19857C22.5817 6.6768 22.0662 6.35655 21.4598 6.11722C20.8721 5.88547 20.2008 5.72648 19.2186 5.68177C18.234 5.63633 17.9193 5.625 15.4117 5.625C12.9042 5.625 12.5892 5.63558 11.6041 5.68177Z" fill="white"/>
</g>
</g>
</svg>
