<svg width="117" height="30" viewBox="0 0 117 30" fill="none" xmlns="http://www.w3.org/2000/svg">
<path d="M15.0772 25.8606H23.8254V29.872H11.0658V12.7169H7.4812V8.70555H11.0658V0H15.0772V8.70555H22.2038V12.7169H15.0772V25.8606Z" fill="white"/>
<path d="M39.0151 16.3869V12.7596H27.4931V8.70555H43.0265V25.8606H45.8857V29.872H39.5699L39.1432 27.6102H39.0151C38.6737 28.2361 37.991 28.7767 36.9668 29.2319C35.9426 29.6871 34.6624 29.9146 33.1261 29.9146C30.6225 29.9146 28.7022 29.2603 27.3651 27.9516C26.0279 26.6145 25.3594 24.9218 25.3594 22.8734C25.3594 20.7397 26.156 19.1323 27.7491 18.0512C29.3423 16.9417 31.476 16.3869 34.1503 16.3869H39.0151ZM39.0151 20.0142H34.7477C33.8373 20.0142 33.055 20.1138 32.4006 20.3129C31.7463 20.5121 31.2057 20.7681 30.779 21.0811C30.3807 21.3656 30.082 21.707 29.8828 22.1053C29.7122 22.4751 29.6268 22.8449 29.6268 23.2148C29.6268 23.9545 29.8544 24.5661 30.3096 25.0498C30.7932 25.5334 31.3764 25.8748 32.0592 26.074C32.742 26.2731 33.4959 26.3442 34.321 26.2873C35.146 26.202 35.8999 26.0028 36.5827 25.6899C37.2655 25.3485 37.8345 24.8791 38.2897 24.2816C38.7733 23.6842 39.0151 22.973 39.0151 22.1479V20.0142Z" fill="white"/>
<path d="M49.3003 0H53.3117V29.872H49.3003V0Z" fill="white"/>
<path d="M65.4765 8.83357C67.3257 8.83357 68.8904 9.14651 70.1707 9.7724C71.4793 10.3983 72.5178 11.2802 73.2859 12.4182C74.0825 13.5277 74.623 14.8506 74.9075 16.3869C75.2205 17.9232 75.3058 19.5875 75.1636 21.3798H59.5021C59.5021 22.3755 59.6586 23.1863 59.9715 23.8122C60.2845 24.4381 60.7112 24.9218 61.2518 25.2632C61.7923 25.6046 62.404 25.8464 63.0868 25.9886C63.7695 26.1024 64.495 26.1593 65.2631 26.1593C65.8037 26.1593 66.3584 26.1451 66.9274 26.1166C67.4964 26.0597 68.0227 25.9602 68.5064 25.8179C68.99 25.6472 69.4168 25.4054 69.7866 25.0925C70.1849 24.7795 70.4552 24.3528 70.5974 23.8122H74.6941C74.4097 24.9502 73.9687 25.9175 73.3712 26.7141C72.8023 27.4822 72.1052 28.1081 71.2802 28.5917C70.4836 29.0754 69.5732 29.431 68.5491 29.6586C67.5533 29.8862 66.4865 30 65.3485 30C61.9061 30 59.3883 29.1038 57.7951 27.3115C56.2304 25.5192 55.4481 22.8876 55.4481 19.4168C55.4481 17.8805 55.6472 16.4723 56.0455 15.192C56.4722 13.8834 57.0981 12.7596 57.9232 11.8208C58.7482 10.8819 59.7866 10.1565 61.0384 9.64438C62.2902 9.10384 63.7695 8.83357 65.4765 8.83357ZM71.1949 17.6245C71.1664 17.2831 71.0953 16.8279 70.9815 16.2589C70.8677 15.6615 70.6116 15.0925 70.2133 14.5519C69.8435 13.9829 69.2887 13.4993 68.5491 13.101C67.8094 12.7027 66.7994 12.5036 65.5192 12.5036C64.3527 12.5036 63.3855 12.6743 62.6173 13.0156C61.8492 13.357 61.2233 13.7838 60.7397 14.2959C60.2845 14.808 59.9573 15.3627 59.7582 15.9602C59.5875 16.5576 59.5021 17.1124 59.5021 17.6245H71.1949Z" fill="white"/>
<path d="M78.6805 29.872V8.70555H82.8626V11.0953H82.9479C83.3747 10.441 84.1286 9.87198 85.2097 9.38834C86.3192 8.9047 87.5568 8.66288 88.9223 8.66288C90.0888 8.66288 91.2552 8.77667 92.4216 9.00427C93.5881 9.23186 94.6549 9.7155 95.6222 10.4552C96.5895 11.1949 97.3718 12.2617 97.9693 13.6558C98.5667 15.0498 98.8654 16.9275 98.8654 19.2888V29.872H94.598V19.5875C94.598 18.1935 94.4842 17.0555 94.2566 16.1735C94.029 15.2632 93.6734 14.5519 93.1898 14.0398C92.7346 13.5277 92.1371 13.1721 91.3974 12.973C90.6862 12.7738 89.8469 12.6743 88.8797 12.6743C87.8839 12.6743 87.002 12.7738 86.2339 12.973C85.4657 13.1721 84.8256 13.5277 84.3135 14.0398C83.8014 14.5519 83.4031 15.2347 83.1186 16.0882C82.8626 16.9132 82.7346 17.9659 82.7346 19.2461V29.872H78.6805Z" fill="white"/>
<path d="M108.177 25.8606H116.925V29.872H104.166V12.7169H100.581V8.70555H104.166V0H108.177V8.70555H115.304V12.7169H108.177V25.8606Z" fill="white"/>
<path d="M0 8.53485H4.01138V29.872H0V8.53485ZM4.01138 0V4.01138H0V0H4.01138Z" fill="white"/>
</svg>
