<svg width="55" height="55" viewBox="0 0 55 55" fill="none" xmlns="http://www.w3.org/2000/svg">
<path d="M55 49.8438H0L4.89844 10.3125H50.1016L55 49.8438Z" fill="#89664C"/>
<path d="M22.5156 7.21875C17.5313 7.21875 8.25 8.85156 5.24219 7.90625C5.24219 7.90625 6.01563 24.8359 1.80469 48.6406C7.73438 48.2109 15.6406 44.8594 21.4844 44.8594C27.4141 44.8594 27.4141 48.6406 27.4141 48.6406V11.4297C27.5859 11.4297 27.5 7.21875 22.5156 7.21875Z" fill="#B0BDC6"/>
<path d="M22.6016 6.61719C17.6172 6.61719 9.96875 8.16406 7.64844 5.15625C7.64844 5.15625 8.42188 24.3203 3.26562 45.7188C5.15625 48.3828 15.2969 44.7734 21.2266 44.7734C27.1563 44.7734 27.5 48.6406 27.5 48.6406V10.8281C27.5859 10.8281 27.5859 6.61719 22.6016 6.61719Z" fill="#E1EBEF"/>
<path d="M21.5703 44.8594C15.6406 44.8594 5.24219 48.6406 1.89062 48.6406H27.5859C27.5859 48.6406 27.5 44.8594 21.5703 44.8594Z" fill="#94989B"/>
<path d="M10.1406 12.2031L10.2266 11.5156C11 11.5156 12.4609 11.2578 14.0937 10.9141C16.3281 10.4844 18.9062 9.96875 20.9687 9.96875C23.7187 9.96875 24.5781 10.5703 24.75 10.6562L24.4922 10.9141L24.2344 11.1719C24.2344 11.1719 23.375 10.6562 20.9687 10.6562C18.9922 10.6562 16.5 11.1719 14.2656 11.6016C12.5469 11.9453 11.0859 12.2031 10.1406 12.2031Z" fill="#7D8B91"/>
<path d="M9.79688 15.8984L9.88281 15.125C10.7422 15.125 12.2031 14.8672 13.8359 14.5234C16.1563 14.0937 18.7344 13.5781 20.7969 13.5781C23.5469 13.5781 24.4922 14.1797 24.5781 14.2656L24.4063 14.6094L24.1484 14.9531C24.1484 14.9531 23.2891 14.3516 20.7969 14.3516C18.7344 14.3516 16.2422 14.8672 13.9219 15.2969C12.2031 15.6406 10.7422 15.8984 9.79688 15.8984Z" fill="#7D8B91"/>
<path d="M9.45312 19.7656L9.53906 18.9922C10.3984 18.9922 11.8594 18.6484 13.5781 18.3047C15.8984 17.7891 18.5625 17.2734 20.7109 17.2734C23.5469 17.2734 24.4922 17.9609 24.5781 18.0469L24.3203 18.3906L24.0625 18.7344C24.0625 18.7344 23.2031 18.1328 20.625 18.1328C18.5625 18.1328 15.9844 18.6484 13.6641 19.1641C11.9453 19.5078 10.3984 19.7656 9.45312 19.7656Z" fill="#7D8B91"/>
<path d="M9.10938 23.8047L9.19531 22.9453C10.0547 22.9453 11.6016 22.6016 13.3203 22.2578C15.7266 21.7422 18.3906 21.2266 20.625 21.2266C23.5469 21.2266 24.4922 21.9141 24.5781 22L24.2344 22.3437L24.0625 22.6875C24.0625 22.6875 23.2031 22.0859 20.5391 22.0859C18.3906 22.0859 15.7266 22.6016 13.4062 23.1172C11.6016 23.4609 10.0547 23.8047 9.10938 23.8047Z" fill="#7D8B91"/>
<path d="M8.67969 28.0156L8.76562 27.1562C9.625 27.1562 11.1719 26.8125 12.9766 26.4687C15.3828 25.9531 18.1328 25.3516 20.3672 25.3516C23.2891 25.3516 24.3203 26.0391 24.4062 26.125L24.1484 26.4687L23.8906 26.8125C23.8906 26.8125 23.0312 26.2109 20.2812 26.2109C18.1328 26.2109 15.3828 26.8125 12.9766 27.3281C11.2578 27.6719 9.625 28.0156 8.67969 28.0156Z" fill="#7D8B91"/>
<path d="M8.25 32.3984L8.33594 31.5391C9.19531 31.5391 10.8281 31.1953 12.6328 30.7656C15.125 30.25 17.9609 29.6484 20.1953 29.6484C23.2031 29.6484 24.2344 30.4219 24.3203 30.5078L24.0625 30.8516L23.8047 31.1953C23.8047 31.1953 22.8594 30.5078 20.1094 30.5078C17.875 30.5078 15.125 31.1094 12.6328 31.625C10.9141 32.0547 9.28125 32.3984 8.25 32.3984Z" fill="#7D8B91"/>
<path d="M7.82031 36.9531L7.90625 36.0078C8.85156 36.0078 10.3984 35.6641 12.2891 35.2344C14.8672 34.6328 17.7031 34.0312 20.0234 34.0312C23.1172 34.0312 24.1484 34.8047 24.2344 34.8906L24.0625 35.3203L23.8047 35.6641C23.8047 35.6641 22.8594 34.9766 20.0234 34.9766C17.7891 34.9766 14.9531 35.5781 12.375 36.1797C10.5703 36.6094 8.85156 36.9531 7.82031 36.9531Z" fill="#7D8B91"/>
<path d="M7.39062 41.7656L7.47656 40.8203C8.42187 40.8203 10.0547 40.4766 11.9453 40.0469C14.5234 39.4453 17.5312 38.7578 19.8516 38.7578C23.0312 38.7578 24.0625 39.6172 24.1484 39.7031L23.8906 40.0469L23.7188 40.3906C23.7188 40.3906 22.7734 39.6172 19.8516 39.6172C17.5312 39.6172 14.6094 40.3047 12.0312 40.9062C10.1406 41.3359 8.42188 41.7656 7.39062 41.7656Z" fill="#7D8B91"/>
<path d="M32.4844 7.21875C37.4688 7.21875 46.75 8.85156 49.7578 7.90625C49.7578 7.90625 48.9844 24.8359 53.1953 48.6406C47.2656 48.2109 39.3594 44.8594 33.5156 44.8594C27.5859 44.8594 27.5859 48.6406 27.5859 48.6406V11.4297C27.5 11.4297 27.5 7.21875 32.4844 7.21875Z" fill="#B0BDC6"/>
<path d="M32.3984 6.61719C37.3828 6.61719 45.0312 8.16406 47.3516 5.15625C47.3516 5.15625 46.5781 24.3203 51.7344 45.7188C49.8438 48.3828 39.7031 44.7734 33.7734 44.7734C27.8437 44.7734 27.5 48.6406 27.5 48.6406V10.8281C27.5 10.8281 27.5 6.61719 32.3984 6.61719Z" fill="#D9E3E8"/>
<path d="M33.4297 44.8594C39.3594 44.8594 49.7578 48.6406 53.1094 48.6406H27.5C27.5 48.6406 27.5 44.8594 33.4297 44.8594Z" fill="#94989B"/>
<path d="M44.8594 12.2031L44.7734 11.5156C44 11.5156 42.5391 11.2578 40.9062 10.9141C38.6719 10.4844 36.0937 9.96875 34.0312 9.96875C31.2812 9.96875 30.4219 10.5703 30.25 10.6562L30.5078 10.9141L30.7656 11.1719C30.7656 11.1719 31.625 10.6562 34.0312 10.6562C36.0078 10.6562 38.5 11.1719 40.7344 11.6016C42.5391 11.9453 44 12.2031 44.8594 12.2031Z" fill="#7D8B91"/>
<path d="M45.2031 15.8984L45.1172 15.125C44.2578 15.125 42.7969 14.8672 41.1641 14.5234C38.8438 14.0937 36.2656 13.5781 34.2031 13.5781C31.4531 13.5781 30.5078 14.1797 30.4219 14.2656L30.6797 14.5234L30.9375 14.8672C30.9375 14.8672 31.7969 14.2656 34.2891 14.2656C36.3516 14.2656 38.8438 14.7813 41.1641 15.2109C42.7969 15.6406 44.2578 15.8984 45.2031 15.8984Z" fill="#7D8B91"/>
<path d="M45.5469 19.7656L45.4609 18.9922C44.6016 18.9922 43.1406 18.6484 41.4219 18.3047C39.1016 17.7891 36.4375 17.2734 34.2891 17.2734C31.4531 17.2734 30.5078 17.9609 30.4219 18.0469L30.6797 18.3906L30.9375 18.7344C30.9375 18.7344 31.7969 18.1328 34.375 18.1328C36.4375 18.1328 39.0156 18.6484 41.3359 19.1641C43.1406 19.5078 44.6016 19.7656 45.5469 19.7656Z" fill="#7D8B91"/>
<path d="M45.9766 23.8047L45.8906 22.9453C45.0313 22.9453 43.4844 22.6016 41.7656 22.2578C39.3594 21.7422 36.6953 21.2266 34.4609 21.2266C31.5391 21.2266 30.5938 21.9141 30.5078 22L30.7656 22.3437L31.0234 22.6875C31.0234 22.6875 31.8828 22.0859 34.5469 22.0859C36.6953 22.0859 39.3594 22.6016 41.6797 23.1172C43.3984 23.4609 45.0312 23.8047 45.9766 23.8047Z" fill="#7D8B91"/>
<path d="M46.3203 28.0156L46.2344 27.1562C45.375 27.1562 43.8281 26.8125 42.0234 26.4687C39.6172 25.9531 36.8672 25.3516 34.6328 25.3516C31.7109 25.3516 30.6797 26.0391 30.5938 26.125L30.8516 26.4687L31.1094 26.8125C31.1094 26.8125 31.9688 26.2109 34.7188 26.2109C36.8672 26.2109 39.6172 26.8125 42.0234 27.3281C43.7422 27.6719 45.375 28.0156 46.3203 28.0156Z" fill="#7D8B91"/>
<path d="M46.75 32.3984L46.6641 31.5391C45.8047 31.5391 44.1719 31.1953 42.3672 30.7656C39.875 30.25 37.0391 29.6484 34.8047 29.6484C31.7969 29.6484 30.7656 30.4219 30.6797 30.5078L30.9375 30.8516L31.1953 31.1953C31.1953 31.1953 32.1406 30.5078 34.8906 30.5078C37.125 30.5078 39.875 31.1094 42.3672 31.625C44.0859 32.0547 45.7187 32.3984 46.75 32.3984Z" fill="#7D8B91"/>
<path d="M47.1797 36.9531L47.0937 36.0078C46.1484 36.0078 44.6016 35.6641 42.7109 35.2344C40.1328 34.6328 37.2969 34.0312 34.9766 34.0312C31.8828 34.0312 30.8516 34.8047 30.7656 34.8906L31.0234 35.2344L31.2813 35.5781C31.2813 35.5781 32.2266 34.8906 35.0625 34.8906C37.2969 34.8906 40.1328 35.4922 42.7109 36.0938C44.5156 36.6094 46.1484 36.9531 47.1797 36.9531Z" fill="#7D8B91"/>
<path d="M47.6094 41.7656L47.5234 40.8203C46.5781 40.8203 44.9453 40.4766 43.0547 40.0469C40.4766 39.4453 37.4688 38.7578 35.1484 38.7578C31.9688 38.7578 30.9375 39.6172 30.8516 39.7031L31.1094 40.0469L31.3672 40.4766C31.3672 40.4766 32.3125 39.7031 35.2344 39.7031C37.5547 39.7031 40.4766 40.3906 43.0547 40.9922C44.8594 41.3359 46.5781 41.7656 47.6094 41.7656Z" fill="#7D8B91"/>
</svg>
